<svg width="23" height="22" viewBox="0 0 23 22" fill="none" xmlns="http://www.w3.org/2000/svg">
  <path
    d="M21.125 11C21.125 11 16.3966 3.75 11.5 3.75C6.60337 3.75 1.875 11 1.875 11C1.875 11 6.60337 18.25 11.5 18.25C16.3966 18.25 21.125 11 21.125 11Z"
    stroke="#050B20"
    stroke-width="1.5"
    stroke-linecap="round"
    stroke-linejoin="round"
  />
  <path
    d="M11.5 14.1875C13.3472 14.1875 14.8438 12.6909 14.8438 10.8438C14.8438 8.99655 13.3472 7.5 11.5 7.5C9.6528 7.5 8.15625 8.99655 8.15625 10.8438C8.15625 12.6909 9.6528 14.1875 11.5 14.1875Z"
    stroke="#050B20"
    stroke-width="1.5"
    stroke-linecap="round"
    stroke-linejoin="round"
  />
  <path
    d="M11.5 12.1875C12.2389 12.1875 12.8438 11.5827 12.8438 10.8438C12.8438 10.1048 12.2389 9.5 11.5 9.5C10.7611 9.5 10.1562 10.1048 10.1562 10.8438C10.1562 11.5827 10.7611 12.1875 11.5 12.1875Z"
    stroke="#050B20"
    stroke-width="1.5"
    stroke-linecap="round"
    stroke-linejoin="round"
  />
</svg>
